<?xml version="1.0" standalone="no"?>
<!DOCTYPE svg PUBLIC "-//W3C//DTD SVG 20010904//EN"
 "http://www.w3.org/TR/2001/REC-SVG-20010904/DTD/svg10.dtd">
<svg version="1.0" xmlns="http://www.w3.org/2000/svg"
 width="700.000000pt" height="700.000000pt" viewBox="0 0 700.000000 700.000000"
 preserveAspectRatio="xMidYMid meet">
<metadata>
Created by potrace 1.11, written by Peter Selinger 2001-2013
</metadata>
<g transform="translate(0.000000,700.000000) scale(0.100000,-0.100000)"
fill="#000000" stroke="none">
<path d="M2150 5521 c-204 -44 -389 -163 -517 -332 -73 -97 -143 -253 -161
-362 -9 -53 -9 -248 0 -307 36 -248 210 -493 438 -618 58 -32 144 -68 182 -77
179 -39 322 -41 458 -5 600 161 848 859 484 1365 -195 273 -549 407 -884 336z"/>
<path d="M4492 5525 c-306 -67 -554 -286 -652 -576 -52 -152 -59 -339 -20
-499 79 -326 368 -591 705 -647 103 -17 289 -5 398 27 202 59 396 217 506 411
33 59 80 184 88 234 2 17 8 47 13 68 14 66 3 255 -19 342 -21 77 -97 249 -123
277 -7 7 -25 29 -39 48 -39 51 -106 117 -163 160 -51 38 -163 101 -201 113
-142 44 -166 49 -295 52 -90 2 -156 -1 -198 -10z"/>
<path d="M2178 3204 c-2 -1 -37 -5 -78 -8 -90 -7 -146 -14 -220 -26 -30 -5
-73 -12 -95 -16 -291 -44 -723 -183 -953 -306 -303 -162 -473 -340 -525 -546
-13 -53 -16 -132 -17 -453 l0 -389 47 0 c54 -1 3962 -1 4008 0 l31 0 -2 408
c-2 392 -2 409 -24 472 -31 93 -83 173 -164 255 -88 87 -108 104 -210 170
-209 135 -491 249 -816 330 -73 18 -236 53 -280 59 -19 3 -44 7 -55 10 -11 2
-42 7 -70 10 -27 3 -66 8 -85 11 -107 15 -151 17 -312 20 -98 1 -179 1 -180
-1z"/>
<path d="M4518 3204 c-2 -2 -32 -4 -66 -5 -34 -1 -62 -3 -62 -5 0 -2 26 -24
58 -50 234 -190 380 -388 456 -620 47 -142 53 -210 53 -649 1 -223 3 -408 6
-411 3 -3 1252 -7 1680 -4 l67 0 0 388 c-1 425 -5 463 -59 570 -28 55 -92 144
-136 187 -101 101 -307 233 -475 304 -41 18 -84 36 -95 41 -55 25 -112 45
-243 85 -78 25 -153 47 -165 49 -12 2 -58 13 -102 24 -44 11 -109 25 -145 32
-36 6 -85 16 -110 21 -43 8 -140 21 -260 35 -61 6 -397 14 -402 8z"/>
</g>
</svg>
